<svg width="97" height="97" viewBox="0 0 97 97" fill="none" xmlns="http://www.w3.org/2000/svg">
<rect width="97" height="97" rx="30" fill="#32DE84"/>
<path d="M61.1979 43.1353L65.3455 36.2163C65.5795 35.8284 65.438 35.3357 65.0407 35.1103C64.6433 34.8849 64.1262 35.0159 63.8976 35.4038L59.6956 42.4119C56.4896 41.0019 52.8809 40.2156 49 40.2156C45.1191 40.2156 41.5103 41.0019 38.3044 42.4119L34.1023 35.4038C33.8683 35.0159 33.3566 34.8849 32.9538 35.1103C32.551 35.3357 32.415 35.8284 32.649 36.2163L36.7966 43.1353C29.6444 46.8674 24.8001 53.8388 24 62H74C73.1999 53.8387 68.3555 46.8673 61.1979 43.1353H61.1979ZM37.5206 55.2383C36.3612 55.2383 35.425 54.3315 35.425 53.2202C35.425 52.1038 36.3666 51.2022 37.5206 51.2022C38.6799 51.2022 39.6161 52.109 39.6161 53.2202C39.6216 54.3315 38.6799 55.2383 37.5206 55.2383ZM60.474 55.2383C59.3146 55.2383 58.3784 54.3315 58.3784 53.2202C58.3784 52.1038 59.3201 51.2022 60.474 51.2022C61.6334 51.2022 62.5696 52.109 62.5696 53.2202C62.575 54.3315 61.6334 55.2383 60.474 55.2383Z" fill="black"/>
</svg>
