<svg width="97" height="97" viewBox="0 0 97 97" fill="none" xmlns="http://www.w3.org/2000/svg">
<rect width="97" height="97" rx="30" fill="#F1F1F1"/>
<path d="M44.2703 33.6562H34.7219C33.7948 33.6592 32.9067 34.0296 32.2522 34.6862C31.5977 35.3428 31.2302 36.2321 31.2302 37.1592C31.2166 37.6044 31.2909 38.048 31.4489 38.4645C31.6068 38.8809 31.8453 39.2622 32.1507 39.5865C32.4561 39.9108 32.8224 40.1717 33.2287 40.3543C33.6349 40.5369 34.0732 40.6377 34.5185 40.6509H44.3381L44.2703 33.6562Z" fill="#073042"/>
<path d="M65.9096 64.7875H34.7105C33.7873 64.7815 32.9038 64.4114 32.2521 63.7575C31.6004 63.1037 31.2331 62.219 31.2301 61.2958V37.1366C31.2272 37.5966 31.3148 38.0527 31.4881 38.4789C31.6614 38.905 31.917 39.2928 32.2401 39.6202C32.5633 39.9476 32.9478 40.2081 33.3717 40.3869C33.7956 40.5657 34.2505 40.6592 34.7105 40.6622H60.8246C60.8246 40.6622 65.9096 40.2215 65.9096 44.0521V64.7875Z" fill="#4285F4"/>
<path d="M51.3553 52.4141C51.8754 52.0226 52.2611 51.4792 52.459 50.8591C52.6569 50.2389 52.6572 49.5725 52.4599 48.9522C52.2627 48.3318 51.8775 47.788 51.3578 47.3961C50.838 47.0041 50.2093 46.7833 49.5586 46.7641H49.6603C49.8442 46.7414 50.0302 46.7414 50.214 46.7641V44.8205C50.2174 44.7107 50.192 44.6019 50.1405 44.5048C50.089 44.4077 50.0131 44.3257 49.9202 44.2669C49.8256 44.2121 49.718 44.1838 49.6087 44.1848C49.4993 44.1859 49.3923 44.2163 49.2988 44.2729C49.2052 44.3295 49.1286 44.4102 49.0769 44.5065C49.0252 44.6029 49.0004 44.7113 49.0049 44.8205V46.798C48.5955 46.8613 48.2027 47.0049 47.849 47.2206C47.4953 47.4363 47.1878 47.7199 46.9441 48.0549C46.7005 48.3899 46.5255 48.7699 46.4292 49.1728C46.333 49.5757 46.3174 49.9937 46.3834 50.4027C46.4451 50.8089 46.5867 51.1987 46.8001 51.5498C47.0134 51.9009 47.2943 52.2062 47.6264 52.448L41.8747 64.7423H45.6263L48.2817 59.0923C48.3922 58.8575 48.5672 58.6589 48.7863 58.5198C49.0054 58.3807 49.2596 58.3068 49.5191 58.3068C49.7786 58.3068 50.0328 58.3807 50.2519 58.5198C50.471 58.6589 50.646 58.8575 50.7564 59.0923L53.491 64.7423H57.2878L51.3553 52.4141ZM49.4343 51.8604C49.1791 51.8589 48.9267 51.8072 48.6914 51.7081C48.4562 51.6091 48.2427 51.4647 48.0633 51.2831C47.8839 51.1016 47.742 50.8865 47.6457 50.6501C47.5494 50.4138 47.5006 50.1607 47.5021 49.9055C47.5068 49.5267 47.6222 49.1576 47.834 48.8435C48.0457 48.5295 48.3447 48.2841 48.694 48.1377C49.0434 47.9912 49.4279 47.95 49.8003 48.0192C50.1727 48.0883 50.5168 48.2648 50.7903 48.5269C51.0664 48.7968 51.2559 49.1428 51.3345 49.5207C51.4132 49.8987 51.3776 50.2915 51.2321 50.6491C51.0866 51.0068 50.8379 51.313 50.5178 51.5287C50.1976 51.7444 49.8204 51.8599 49.4343 51.8604V51.8604Z" fill="#3870B2"/>
<path d="M42.1797 35.3738H55.5701V37.8259H42.1797V35.3738Z" fill="white"/>
<path d="M48.3948 47.9845C48.7764 47.989 49.1482 48.1064 49.4632 48.3219C49.7782 48.5374 50.0223 48.8414 50.1648 49.1955C50.3072 49.5496 50.3416 49.938 50.2636 50.3116C50.1856 50.6852 49.9987 51.0274 49.7264 51.2949C49.4542 51.5624 49.1088 51.7433 48.7339 51.8148C48.359 51.8863 47.9713 51.8451 47.6197 51.6965C47.2682 51.5478 46.9685 51.2984 46.7585 50.9797C46.5485 50.661 46.4377 50.2872 46.4399 49.9055C46.4501 49.3962 46.6566 48.9104 47.0162 48.5495C47.1975 48.3693 47.4126 48.2266 47.6492 48.1297C47.8857 48.0327 48.1391 47.9834 48.3948 47.9845V47.9845ZM49.1632 46.8545V44.8205C49.1665 44.7107 49.1411 44.6019 49.0896 44.5048C49.0381 44.4077 48.9622 44.3257 48.8694 44.2669C48.7747 44.2121 48.6671 44.1838 48.5578 44.1848C48.4485 44.1859 48.3414 44.2163 48.2479 44.2729C48.1543 44.3295 48.0777 44.4102 48.026 44.5065C47.9743 44.6029 47.9495 44.7113 47.9541 44.8205V46.798C47.5446 46.8613 47.1518 47.0049 46.7981 47.2206C46.4444 47.4363 46.1369 47.7199 45.8932 48.0549C45.6496 48.3899 45.4746 48.7699 45.3784 49.1728C45.2821 49.5757 45.2665 49.9937 45.3325 50.4027C45.3942 50.8089 45.5358 51.1987 45.7492 51.5498C45.9625 51.9009 46.2434 52.2062 46.5755 52.448L39.3548 67.9854C39.218 68.2581 39.1574 68.5626 39.1793 68.8669C39.2011 69.1712 39.3047 69.4639 39.4791 69.7142C39.6513 69.9656 39.8876 70.1663 40.1636 70.2954C40.4395 70.4246 40.745 70.4775 41.0483 70.4486C41.3516 70.4198 41.6416 70.3103 41.8883 70.1315C42.135 69.9526 42.3293 69.711 42.451 69.4317L47.2648 59.0923C47.3752 58.8575 47.5502 58.6589 47.7693 58.5198C47.9884 58.3807 48.2426 58.3068 48.5021 58.3068C48.7616 58.3068 49.0158 58.3807 49.2349 58.5198C49.454 58.6589 49.629 58.8575 49.7394 59.0923L54.6775 69.3752C54.8753 69.7828 55.2269 70.0951 55.655 70.2435C56.083 70.3918 56.5525 70.364 56.9601 70.1662C57.3677 69.9684 57.68 69.6168 57.8283 69.1888C57.9767 68.7607 57.9489 68.2912 57.7511 67.8837L50.3157 52.4141C50.775 52.0496 51.1244 51.5651 51.3251 51.0143C51.5259 50.4634 51.5702 49.8677 51.4532 49.2932C51.3362 48.7187 51.0624 48.1878 50.6622 47.7594C50.262 47.3309 49.751 47.0217 49.1857 46.8658" fill="#073042"/>
<path d="M53.5927 37.5321C53.474 37.5351 53.3558 37.5147 53.245 37.472C53.1341 37.4293 53.0328 37.3652 52.9468 37.2834C52.8607 37.2015 52.7916 37.1035 52.7435 36.995C52.6953 36.8864 52.669 36.7694 52.6661 36.6507C52.6611 36.5267 52.6827 36.403 52.7295 36.288C52.7763 36.173 52.8471 36.0694 52.9373 35.984C53.1087 35.8143 53.3401 35.719 53.5814 35.719C53.8226 35.719 54.0541 35.8143 54.2255 35.984C54.3919 36.1536 54.4887 36.3794 54.4967 36.6168C54.4967 36.7355 54.4733 36.8531 54.4279 36.9628C54.3824 37.0724 54.3158 37.1721 54.2319 37.256C54.148 37.34 54.0483 37.4066 53.9386 37.452C53.8289 37.4974 53.7114 37.5208 53.5927 37.5208V37.5208V37.5321ZM43.5471 37.5208C43.4283 37.5223 43.3105 37.5004 43.2002 37.4563C43.09 37.4123 42.9895 37.3469 42.9045 37.264C42.8195 37.1811 42.7517 37.0823 42.7049 36.9732C42.6581 36.8641 42.6332 36.7468 42.6318 36.6281C42.6291 36.506 42.6518 36.3847 42.6985 36.2719C42.7452 36.1591 42.8148 36.0572 42.903 35.9727C42.9785 35.8787 43.0721 35.8007 43.1782 35.7435C43.2843 35.6862 43.4008 35.6507 43.5209 35.6391C43.6409 35.6275 43.762 35.6401 43.8772 35.676C43.9923 35.712 44.099 35.7706 44.1912 35.8484C44.3726 36.0111 44.4826 36.2387 44.4974 36.4819C44.5122 36.7251 44.4306 36.9644 44.2703 37.1479L44.146 37.2722C43.9737 37.4401 43.7424 37.5335 43.5019 37.5321L43.5471 37.5208ZM53.8752 32.0516L55.6832 28.9103C55.7284 28.8279 55.7418 28.7318 55.721 28.6402C55.7002 28.5486 55.6465 28.4678 55.5702 28.4131C55.4949 28.3786 55.41 28.371 55.3298 28.3916C55.2496 28.4122 55.1789 28.4596 55.1295 28.5261L53.2424 31.7239C51.7748 31.0648 50.1843 30.724 48.5755 30.724C46.9667 30.724 45.3762 31.0648 43.9087 31.7239L42.0668 28.5261C42.0335 28.4684 41.9858 28.4204 41.9283 28.3867C41.8709 28.353 41.8057 28.3349 41.7391 28.334C41.6732 28.3378 41.6091 28.3573 41.5522 28.3907C41.4952 28.4241 41.447 28.4705 41.4114 28.5261C41.3777 28.5845 41.3599 28.6507 41.3599 28.7182C41.3599 28.7856 41.3777 28.8519 41.4114 28.9103L43.2307 32.0516C41.6624 32.9101 40.3328 34.1459 39.3621 35.6473C38.3914 37.1488 37.8102 38.8684 37.6711 40.6509H59.4799C59.3408 38.8684 58.7596 37.1488 57.789 35.6473C56.8183 34.1459 55.4887 32.9101 53.9204 32.0516" fill="#3DDC84"/>
<path d="M62.7795 47.3517H61.3444C61.3047 47.3645 61.2707 47.3906 61.248 47.4256C61.2254 47.4606 61.2155 47.5024 61.2201 47.5438V47.5438V70.1436C61.22 70.1897 61.2375 70.2341 61.269 70.2677C61.3005 70.3013 61.3437 70.3216 61.3896 70.3244H62.8699C63.7011 70.3215 64.4972 69.9892 65.0839 69.4004C65.6706 68.8116 66 68.0143 66 67.1831V44.2104C66 45.0435 65.669 45.8425 65.0799 46.4316C64.4908 47.0208 63.6918 47.3517 62.8586 47.3517H62.7795Z" fill="#073042"/>
</svg>
