<svg width="97" height="97" viewBox="0 0 97 97" fill="none" xmlns="http://www.w3.org/2000/svg">
<rect width="97" height="97" rx="30" fill="#F0684A"/>
<path d="M63 35.648C63 35.4315 62.8887 35.2413 62.7198 35.1312L56.2069 29.5418C56.1453 29.4888 56.0738 29.4551 55.9994 29.4305C55.8914 29.3381 55.7534 29.2801 55.6001 29.2801H36.4965C36.1559 29.2801 35.8802 29.5558 35.8802 29.8964V68.1036C35.8802 68.4438 36.1559 68.7199 36.4965 68.7199H62.3788C62.719 68.7199 62.9951 68.4438 62.9951 68.1036V35.8534C62.9951 35.8259 62.9906 35.8 62.9869 35.7733C62.9955 35.7331 63 35.6907 63 35.648ZM37.1127 67.4874V30.5126H55.1893V35.648C55.1893 35.9886 55.4654 36.2643 55.8055 36.2643H61.7626V67.4874H37.1127Z" fill="white" stroke="white" stroke-width="2"/>
<path d="M57.2434 41.1942H41.6319C41.4051 41.1942 41.221 41.0102 41.221 40.7834C41.221 40.5566 41.4051 40.3726 41.6319 40.3726H57.2434C57.4706 40.3726 57.6543 40.5566 57.6543 40.7834C57.6543 41.0102 57.4706 41.1942 57.2434 41.1942Z" fill="white" stroke="white" stroke-width="2"/>
<path d="M57.2434 46.9458H41.6319C41.4051 46.9458 41.221 46.7618 41.221 46.535C41.221 46.3082 41.4051 46.1242 41.6319 46.1242H57.2434C57.4706 46.1242 57.6543 46.3082 57.6543 46.535C57.6543 46.7618 57.4706 46.9458 57.2434 46.9458Z" fill="white" stroke="white" stroke-width="2"/>
<path d="M57.2434 51.8758H41.6319C41.4051 51.8758 41.221 51.6922 41.221 51.465C41.221 51.2378 41.4051 51.0542 41.6319 51.0542H57.2434C57.4706 51.0542 57.6543 51.2378 57.6543 51.465C57.6543 51.6922 57.4706 51.8758 57.2434 51.8758Z" fill="white" stroke="white" stroke-width="2"/>
<path d="M57.2434 57.6274H41.6319C41.4051 57.6274 41.221 57.4438 41.221 57.2166C41.221 56.9894 41.4051 56.8058 41.6319 56.8058H57.2434C57.4706 56.8058 57.6543 56.9894 57.6543 57.2166C57.6543 57.4438 57.4706 57.6274 57.2434 57.6274Z" fill="white" stroke="white" stroke-width="2"/>
</svg>
