<svg width="97" height="97" viewBox="0 0 97 97" fill="none" xmlns="http://www.w3.org/2000/svg">
<rect width="97" height="97" rx="30" fill="#E9E9EA"/>
<path fill-rule="evenodd" clip-rule="evenodd" d="M48.5 20C32.7537 20 20 32.6175 20 48.1956C20 60.6721 28.1581 71.2102 39.4869 74.9461C40.9119 75.1928 41.4462 74.347 41.4462 73.6068C41.4462 72.9372 41.4106 70.7168 41.4106 68.3554C34.25 69.6595 32.3975 66.6284 31.8275 65.0424C31.5069 64.2318 30.1175 61.7295 28.9062 61.0598C27.9087 60.5311 26.4837 59.2271 28.8706 59.1919C31.115 59.1566 32.7181 61.236 33.2525 62.0819C35.8175 66.3465 39.9144 65.1482 41.5531 64.408C41.8025 62.5753 42.5506 61.3418 43.37 60.6369C37.0287 59.932 30.4025 57.5001 30.4025 46.7153C30.4025 43.649 31.5069 41.1114 33.3238 39.1377C33.0388 38.4329 32.0412 35.5428 33.6087 31.6659C33.6087 31.6659 35.9956 30.9258 41.4462 34.556C43.7262 33.9216 46.1488 33.6044 48.5713 33.6044C50.9938 33.6044 53.4163 33.9216 55.6963 34.556C61.1469 30.8905 63.5338 31.6659 63.5338 31.6659C65.1013 35.5428 64.1038 38.4329 63.8188 39.1377C65.6356 41.1114 66.74 43.6138 66.74 46.7153C66.74 57.5354 60.0781 59.932 53.7369 60.6369C54.77 61.518 55.6606 63.2097 55.6606 65.8531C55.6606 69.6242 55.625 72.6552 55.625 73.6068C55.625 74.347 56.1594 75.2281 57.5844 74.9461C68.8419 71.2102 77 60.6369 77 48.1956C77 32.6175 64.2463 20 48.5 20Z" fill="#1B1F23"/>
</svg>
