<svg width="97" height="97" viewBox="0 0 97 97" fill="none" xmlns="http://www.w3.org/2000/svg">
<rect width="97" height="97" rx="30" fill="#00ACD7"/>
<path d="M20.8761 44.3092C20.7503 44.3092 20.7188 44.2463 20.7817 44.1519L21.4423 43.3025C21.5053 43.2082 21.6626 43.1452 21.7884 43.1452H33.0191C33.145 43.1452 33.1764 43.2396 33.1135 43.334L32.5787 44.1519C32.5158 44.2463 32.3585 44.3407 32.2641 44.3407L20.8761 44.3092Z" fill="white"/>
<path d="M16.1258 47.2034C16 47.2034 15.9685 47.1405 16.0315 47.0461L16.6921 46.1967C16.755 46.1023 16.9123 46.0394 17.0381 46.0394H31.3833C31.5091 46.0394 31.572 46.1338 31.5406 46.2282L31.2889 46.9832C31.2575 47.109 31.1316 47.1719 31.0058 47.1719L16.1258 47.2034Z" fill="white"/>
<path d="M23.7388 50.0976C23.613 50.0976 23.5815 50.0032 23.6444 49.9089L24.0849 49.1224C24.1478 49.028 24.2736 48.9336 24.3995 48.9336H30.6912C30.817 48.9336 30.8799 49.028 30.8799 49.1538L30.817 49.9089C30.817 50.0347 30.6912 50.1291 30.5968 50.1291L23.7388 50.0976Z" fill="white"/>
<path d="M56.3929 43.743C54.411 44.2463 53.0583 44.6238 51.1079 45.1271C50.636 45.253 50.6045 45.2844 50.1956 44.8125C49.7237 44.2777 49.3776 43.9317 48.717 43.6171C46.7351 42.6419 44.8161 42.925 43.023 44.089C40.8838 45.4732 39.7827 47.518 39.8142 50.0661C39.8457 52.5828 41.5759 54.6591 44.0611 55.0052C46.2003 55.2883 47.9935 54.5333 49.4091 52.9289C49.6922 52.5828 49.9439 52.2053 50.2585 51.7649C49.126 51.7649 47.7103 51.7649 44.187 51.7649C43.5263 51.7649 43.369 51.356 43.5892 50.8212C43.9982 49.8459 44.7532 48.2101 45.1936 47.3922C45.288 47.2034 45.5082 46.8888 45.9801 46.8888C47.5845 46.8888 53.4987 46.8888 57.4311 46.8888C57.3681 47.7382 57.3681 48.5876 57.2423 49.437C56.8963 51.702 56.0469 53.7783 54.6627 55.6029C52.3977 58.5914 49.4406 60.4475 45.697 60.9508C42.614 61.3598 39.7513 60.7621 37.2346 58.8746C34.9067 57.1129 33.5854 54.7849 33.2393 51.8907C32.8304 48.4618 33.8371 45.3788 35.9133 42.6734C38.1469 39.7477 41.104 37.8916 44.7218 37.231C47.6789 36.6962 50.5102 37.0423 53.0583 38.7725C54.7256 39.8735 55.921 41.3836 56.7075 43.2082C56.8963 43.4913 56.7704 43.6486 56.3929 43.743Z" fill="white"/>
<path d="M66.8057 61.1396C63.943 61.0767 61.3319 60.2587 59.1298 58.3712C57.2738 56.7668 56.1098 54.722 55.7323 52.2997C55.166 48.7449 56.1413 45.599 58.2804 42.7992C60.5769 39.7792 63.3453 38.2062 67.0889 37.5456C70.2977 36.9793 73.3177 37.2939 76.0546 39.15C78.5398 40.8488 80.0813 43.1452 80.4903 46.1653C81.0251 50.4122 79.7982 53.8726 76.8725 56.8298C74.7963 58.9375 72.2481 60.2587 69.3224 60.8565C68.4731 61.0138 67.6237 61.0452 66.8057 61.1396ZM74.2929 48.4303C74.2615 48.0213 74.2615 47.7067 74.1985 47.3922C73.6323 44.2777 70.7695 42.5161 67.781 43.2082C64.8553 43.8688 62.9678 45.7248 62.2757 48.682C61.7094 51.1357 62.9049 53.621 65.1699 54.6276C66.9001 55.3827 68.6304 55.2883 70.2977 54.4389C72.7829 53.1491 74.1356 51.1357 74.2929 48.4303Z" fill="white"/>
</svg>
