<svg width="97" height="97" viewBox="0 0 97 97" fill="none" xmlns="http://www.w3.org/2000/svg">
<rect width="97" height="97" rx="30" fill="#D9272E"/>
<path d="M68.7171 64C69.4273 64 70 63.4424 70 62.7511V34.2489C70 33.5576 69.4273 33 68.7171 33H65.0059C64.3186 33 63.6771 33.2676 63.1961 33.736L48.9467 47.6079C48.6947 47.8532 48.3053 47.8532 48.0533 47.6079L33.8039 33.736C33.3229 33.2676 32.6585 33 31.9941 33H28.2829C27.5727 33 27 33.5576 27 34.2489V62.7511C27 63.4424 27.5727 64 28.2829 64H33.6894C34.3996 64 34.9723 63.4424 34.9723 62.7511V46.5374C34.9723 46.4036 35.1556 46.3367 35.2472 46.4259L46.7017 57.577C47.6867 58.536 49.3133 58.536 50.2983 57.577L61.7528 46.4259C61.8673 46.3367 62.0277 46.4036 62.0277 46.5374V62.7511C62.0277 63.4424 62.6004 64 63.3106 64H68.7171Z" fill="white"/>
</svg>
