<svg width="97" height="97" viewBox="0 0 97 97" fill="none" xmlns="http://www.w3.org/2000/svg">
<rect width="97" height="97" rx="30" fill="#E85C0F"/>
<path d="M37.2013 33.5083L64.2128 28V35.5326L37.2013 41.0409V33.5083Z" fill="white"/>
<path d="M41.55 33.5025H37.2013V61.6603H41.55V33.5025Z" fill="white"/>
<path d="M41.4086 60.5469C42.1856 63.4468 39.6811 66.6374 35.8147 67.6734C31.9482 68.7095 28.1839 67.1985 27.4069 64.2987C26.6299 61.3988 29.1344 58.2082 33.0009 57.1722C36.8673 56.1361 40.6316 57.6471 41.4086 60.5469V60.5469Z" fill="white"/>
<path d="M64.2128 28.9027H59.8641V57.0605H64.2128V28.9027Z" fill="white"/>
<path d="M64.0714 55.9471C64.8484 58.847 62.3439 62.0376 58.4775 63.0736C54.611 64.1096 50.8467 62.5987 50.0697 59.6989C49.2927 56.799 51.7972 53.6084 55.6636 52.5723C59.5301 51.5363 63.2944 53.0473 64.0714 55.9471V55.9471Z" fill="white"/>
</svg>
