<svg width="97" height="97" viewBox="0 0 97 97" fill="none" xmlns="http://www.w3.org/2000/svg">
<rect width="97" height="97" rx="30" fill="#3A3222"/>
<path d="M43.5503 46.7L47.0002 75.4497L70 62.2249V35.7751L43.5503 46.7Z" fill="#FB992D"/>
<path d="M47.0001 45.55V75.4497L24.0004 62.2249V35.7751L47.0001 45.55Z" fill="#FFB739"/>
<path d="M24 35.7751L32.0402 40.398L47.2729 35.9223L55.0392 27.1724L46.9998 22.5503L24 35.7751Z" fill="#FB992D"/>
<path d="M38.9611 44.3775L46.9998 49L69.9995 35.7751L61.9611 31.152L46.6156 35.6922L38.9611 44.3775Z" fill="#F67A21"/>
<path d="M38.9611 55.8773L32.0401 51.8979V40.398L38.7113 40.919L38.9611 44.3775V55.8773Z" fill="#FFEAC3"/>
<path d="M32.0401 40.398L55.0392 27.1724L61.9611 31.152L38.9611 44.3775L32.0401 40.398Z" fill="#FFD488"/>
</svg>
