<svg width="97" height="97" viewBox="0 0 97 97" fill="none" xmlns="http://www.w3.org/2000/svg">
<rect width="97" height="97" rx="30" fill="#6660D6"/>
<path d="M67 60.8751C67 62.5937 65.5752 64 63.8336 64H32.1664C30.4248 64 29 62.594 29 60.8751V37.1247C29 35.406 30.4248 34 32.1664 34H63.8336C65.5752 34 67 35.406 67 37.1247V60.8751ZM32.1664 36.4999C31.83 36.4999 31.5335 36.7936 31.5335 37.1244V60.8748C31.5335 61.2067 31.8303 61.4993 32.1664 61.4993H63.8336C64.1689 61.4993 64.4673 61.2067 64.4673 60.8748V37.1244C64.4673 36.7936 64.1689 36.4999 63.8336 36.4999H32.1664V36.4999ZM37.8671 46.4997C35.7691 46.4997 34.066 44.8201 34.066 42.7503C34.066 40.6805 35.7691 39 37.8671 39C39.9643 39 41.6657 40.6805 41.6657 42.7503C41.6657 44.8201 39.9645 46.4997 37.8671 46.4997ZM61.9329 59.0002H34.066V55.2494L40.3998 49.0007L43.5662 52.1245L53.6995 42.1258L61.9329 50.2508V59.0002Z" fill="white"/>
</svg>
