<svg width="97" height="97" viewBox="0 0 97 97" fill="none" xmlns="http://www.w3.org/2000/svg">
<rect width="97" height="97" rx="30" fill="#50A642"/>
<path d="M48.986 29C47.1409 29 45.6472 30.4676 45.6472 32.2788C45.6475 34.0887 47.1412 35.5569 48.986 35.5569C50.829 35.5569 52.3241 34.0887 52.3241 32.2788C52.3241 30.4672 50.829 29 48.986 29V29ZM45.2979 36.398C42.9341 36.398 41 38.2788 41 40.5964V50.7639C41 51.5553 41.6345 52.1981 42.442 52.1981C43.2497 52.1981 43.9041 51.556 43.9041 50.7639V41.5965H44.6488C44.6488 41.5965 44.6658 65.532 44.6658 67.1043C44.6658 68.1652 45.5437 69.0279 46.6257 69.0279C47.707 69.0279 48.5832 68.1652 48.5832 67.1043V52.2927H49.3874V67.1043C49.3874 68.1652 50.2636 69.0279 51.347 69.0279C52.429 69.0279 53.3129 68.1652 53.3129 67.1043V41.5965H54.0665V50.7639C54.0665 51.5553 54.7219 52.1981 55.5283 52.1981C56.3361 52.1981 56.9713 51.556 56.9713 50.7639V40.5964C56.9713 38.2788 55.0358 36.398 52.6741 36.398H45.2979V36.398Z" fill="white"/>
</svg>
