<svg width="97" height="97" viewBox="0 0 97 97" fill="none" xmlns="http://www.w3.org/2000/svg">
<rect width="97" height="97" rx="30" fill="#F2CB0B"/>
<path d="M32 50.0653C32.6659 50.0826 33.2064 50.2601 33.6215 50.5979C34.0453 50.9443 34.3263 51.4163 34.4647 52.0139C34.6031 52.6115 34.6766 53.6335 34.6852 55.0798C34.6939 56.5261 34.7198 57.4788 34.7631 57.9378C34.8409 58.6653 34.9836 59.2499 35.1911 59.6916C35.4073 60.1333 35.6711 60.484 35.9824 60.7439C36.2938 61.0123 36.6916 61.2159 37.1759 61.3545C37.5045 61.4411 38.0407 61.4844 38.7844 61.4844H39.5109V59.4448H39.1087C38.2093 59.4448 37.6126 59.2802 37.3186 58.9511C37.0245 58.6307 36.8775 57.9075 36.8775 56.7816C36.8775 54.5125 36.83 53.0792 36.7348 52.4816C36.5792 51.5549 36.3111 50.8404 35.9306 50.3381C35.5587 49.8358 34.9706 49.3897 34.1663 49C35.1176 48.6016 35.8052 47.991 36.2289 47.1683C36.6613 46.3542 36.8775 45.0161 36.8775 43.154C36.8775 41.4652 36.8948 40.4606 36.9294 40.1401C36.9986 39.5512 37.1716 39.1398 37.4483 38.906C37.7337 38.6722 38.2872 38.5552 39.1087 38.5552H39.5109V36.5156H38.7844C37.9369 36.5156 37.3229 36.5849 36.9424 36.7235C36.3889 36.9227 35.9306 37.2475 35.5673 37.6978C35.2041 38.1395 34.9663 38.7025 34.8539 39.3867C34.7501 40.0708 34.6939 41.1924 34.6852 42.7513C34.6766 44.3102 34.6031 45.3885 34.4647 45.9861C34.3263 46.5837 34.0453 47.0557 33.6215 47.4021C33.2064 47.7485 32.6659 47.9304 32 47.9477V50.0653ZM40.8729 50.0653C41.5388 50.0826 42.0794 50.2601 42.4945 50.5979C42.9182 50.9443 43.1993 51.4163 43.3377 52.0139C43.476 52.6115 43.5495 53.6335 43.5582 55.0798C43.5668 56.5261 43.5928 57.4788 43.636 57.9378C43.7138 58.6653 43.8565 59.2499 44.0641 59.6916C44.2803 60.1333 44.5441 60.484 44.8554 60.7439C45.1667 61.0123 45.5645 61.2159 46.0488 61.3545C46.3775 61.4411 46.9136 61.4844 47.6574 61.4844H48.3838V59.4448H47.9817C47.0823 59.4448 46.4856 59.2802 46.1915 58.9511C45.8975 58.6307 45.7505 57.9075 45.7505 56.7816C45.7505 54.5125 45.7029 53.0792 45.6078 52.4816C45.4521 51.5549 45.184 50.8404 44.8035 50.3381C44.4316 49.8358 43.8436 49.3897 43.0393 49C43.9906 48.6016 44.6781 47.991 45.1019 47.1683C45.5343 46.3542 45.7505 45.0161 45.7505 43.154C45.7505 41.4652 45.7678 40.4606 45.8024 40.1401C45.8715 39.5512 46.0445 39.1398 46.3212 38.906C46.6066 38.6722 47.1601 38.5552 47.9817 38.5552H48.3838V36.5156H47.6574C46.8099 36.5156 46.1958 36.5849 45.8153 36.7235C45.2618 36.9227 44.8035 37.2475 44.4403 37.6978C44.0771 38.1395 43.8392 38.7025 43.7268 39.3867C43.623 40.0708 43.5668 41.1924 43.5582 42.7513C43.5495 44.3102 43.476 45.3885 43.3377 45.9861C43.1993 46.5837 42.9182 47.0557 42.4945 47.4021C42.0794 47.7485 41.5388 47.9304 40.8729 47.9477V50.0653ZM57.127 50.0653V47.9477C56.4611 47.9304 55.9163 47.7485 55.4926 47.4021C55.0774 47.0557 54.8007 46.5837 54.6623 45.9861C54.524 45.3972 54.4505 44.3795 54.4418 42.9332C54.4332 41.4869 54.4072 40.5342 54.364 40.0752C54.2861 39.339 54.1391 38.7544 53.9229 38.3214C53.7154 37.8797 53.4559 37.5289 53.1446 37.2691C52.8333 37.0006 52.4354 36.7971 51.9512 36.6585C51.6225 36.5633 51.0863 36.5156 50.3426 36.5156H49.6162V38.5552H50.0183C50.9177 38.5552 51.5144 38.7198 51.8085 39.0489C52.1025 39.3693 52.2495 40.0968 52.2495 41.2314C52.2495 43.3965 52.2884 44.7693 52.3663 45.3495C52.5046 46.3109 52.7814 47.0773 53.1965 47.6489C53.6116 48.2292 54.1997 48.6796 54.9607 49C53.9662 49.4763 53.2657 50.1042 52.8592 50.8837C52.4527 51.6718 52.2495 52.9969 52.2495 54.859C52.2495 56.5478 52.2279 57.5567 52.1847 57.8859C52.1241 58.4661 51.9512 58.8688 51.6658 59.094C51.389 59.3278 50.8399 59.4448 50.0183 59.4448H49.6162V61.4844H50.3426C51.1901 61.4844 51.8041 61.4151 52.1847 61.2765C52.7381 61.086 53.1965 60.7655 53.5597 60.3152C53.9229 59.8648 54.1564 59.2975 54.2602 58.6134C54.3726 57.9292 54.4332 56.8076 54.4418 55.2487C54.4505 53.6898 54.524 52.6115 54.6623 52.0139C54.8007 51.425 55.0774 50.9573 55.4926 50.6109C55.9163 50.2645 56.4611 50.0826 57.127 50.0653ZM66 50.0653V47.9477C65.3341 47.9304 64.7892 47.7485 64.3655 47.4021C63.9504 47.0557 63.6736 46.5837 63.5353 45.9861C63.3969 45.3972 63.3234 44.3795 63.3148 42.9332C63.3061 41.4869 63.2802 40.5342 63.2369 40.0752C63.1591 39.339 63.0121 38.7544 62.7959 38.3214C62.5883 37.8797 62.3289 37.5289 62.0175 37.2691C61.7062 37.0006 61.3084 36.7971 60.8241 36.6585C60.4955 36.5633 59.9593 36.5156 59.2156 36.5156H58.4891V38.5552H58.8913C59.7907 38.5552 60.3874 38.7198 60.6814 39.0489C60.9754 39.3693 61.1225 40.0968 61.1225 41.2314C61.1225 43.3965 61.1614 44.7693 61.2392 45.3495C61.3776 46.3109 61.6543 47.0773 62.0694 47.6489C62.4845 48.2292 63.0726 48.6796 63.8336 49C62.8391 49.4763 62.1386 50.1042 61.7322 50.8837C61.3257 51.6718 61.1225 52.9969 61.1225 54.859C61.1225 56.5478 61.1008 57.5567 61.0576 57.8859C60.9971 58.4661 60.8241 58.8688 60.5387 59.094C60.262 59.3278 59.7128 59.4448 58.8913 59.4448H58.4891V61.4844H59.2156C60.0631 61.4844 60.6771 61.4151 61.0576 61.2765C61.6111 61.086 62.0694 60.7655 62.4326 60.3152C62.7959 59.8648 63.0294 59.2975 63.1331 58.6134C63.2456 57.9292 63.3061 56.8076 63.3148 55.2487C63.3234 53.6898 63.3969 52.6115 63.5353 52.0139C63.6736 51.425 63.9504 50.9573 64.3655 50.6109C64.7892 50.2645 65.3341 50.0826 66 50.0653Z" fill="white"/>
</svg>
