<svg width="97" height="97" viewBox="0 0 97 97" fill="none" xmlns="http://www.w3.org/2000/svg">
<rect width="97" height="97" rx="30" fill="#49C5B6"/>
<path d="M68.45 37.2L60 42.65V41C60 38.8 58.2 37 56 37H36C33.8 37 32 38.8 32 41V57C32 59.2 33.8 61 36 61H56C58.2 61 60 59.2 60 57V55.35L68.45 60.8C69.4 61.3 70 60.45 70 59.95V38C70 37.5 69.45 36.6 68.45 37.2ZM58 57C58 58.1 57.1 59 56 59H36C34.9 59 34 58.1 34 57V41C34 39.9 34.9 39 36 39H56C57.1 39 58 39.9 58 41V57ZM68 58.15L60 53V45L68 39.85V58.15Z" fill="white"/>
</svg>
